<?xml version="1.0" standalone="no"?>
<!DOCTYPE svg PUBLIC "-//W3C//DTD SVG 20010904//EN"
 "http://www.w3.org/TR/2001/REC-SVG-20010904/DTD/svg10.dtd">
<svg version="1.0" xmlns="http://www.w3.org/2000/svg"
 width="128.000000pt" height="128.000000pt" viewBox="0 0 128.000000 128.000000"
 preserveAspectRatio="xMidYMid meet">

<g transform="translate(0.000000,128.000000) scale(0.100000,-0.100000)"
fill="#000000" stroke="none">
<path d="M195 1261 c-55 -35 -172 -164 -185 -205 -47 -147 103 -446 347 -691
181 -181 375 -308 538 -350 127 -33 177 -17 288 93 133 132 130 166 -37 330
-111 111 -114 112 -160 112 -57 0 -91 -20 -116 -71 -59 -115 -180 -103 -326
33 -75 71 -118 133 -140 203 -16 48 -15 54 1 88 12 25 35 48 71 69 61 37 79
70 71 130 -5 36 -19 54 -109 146 -132 133 -177 154 -243 113z"/>
</g>
</svg>
